<svg width="32" height="32" viewBox="0 0 32 32" fill="none" xmlns="http://www.w3.org/2000/svg">
<g clip-path="url(#clip0_26_497)">
<path fill-rule="evenodd" clip-rule="evenodd" d="M24 32H8C5.8783 31.9999 3.84352 31.157 2.34325 29.6568C0.842977 28.1565 9.28184e-05 26.1217 0 24L0 8C9.28184e-05 5.8783 0.842977 3.84352 2.34325 2.34325C3.84352 0.842977 5.8783 9.28184e-05 8 0L24 0C26.1217 0 28.1566 0.842855 29.6569 2.34315C31.1571 3.84344 32 5.87827 32 8V24C32 26.1217 31.1571 28.1566 29.6569 29.6569C28.1566 31.1571 26.1217 32 24 32Z" fill="#199BDF"/>
<path fill-rule="evenodd" clip-rule="evenodd" d="M15 9H24C25.1536 8.99993 26.2632 8.55683 27.0995 7.7622C27.9359 6.96758 28.4351 5.88213 28.4941 4.73C28.5532 3.57788 28.1675 2.44708 27.4168 1.57113C26.666 0.695185 25.6076 0.140991 24.46 0.023C24.307 0.0145 24.1555 0 24 0H8C5.8783 9.28184e-05 3.84352 0.842977 2.34325 2.34325C0.842977 3.84352 9.28184e-05 5.8783 0 8L0 24C9.28219e-05 20.0218 1.58048 16.2065 4.3935 13.3935C7.20653 10.5805 11.0218 9.00009 15 9Z" fill="#199BDF"/>
<path fill-rule="evenodd" clip-rule="evenodd" d="M24 16C22.4178 16 20.871 16.4692 19.5554 17.3482C18.2399 18.2273 17.2145 19.4767 16.609 20.9385C16.0035 22.4003 15.845 24.0089 16.1537 25.5607C16.4624 27.1126 17.2243 28.538 18.3431 29.6569C19.462 30.7757 20.8874 31.5376 22.4393 31.8463C23.9911 32.155 25.5997 31.9965 27.0615 31.391C28.5233 30.7855 29.7727 29.7602 30.6518 28.4446C31.5308 27.129 32 25.5823 32 24V8C32 10.1217 31.1572 12.1566 29.6569 13.6569C28.1566 15.1571 26.1217 16 24 16Z" fill="#199BDF"/>
<path fill-rule="evenodd" clip-rule="evenodd" d="M22.54 8.51611C22.7858 8.41463 23.0542 8.38032 23.3176 8.41668C23.581 8.45305 23.83 8.55879 24.0391 8.72307C24.2482 8.88735 24.4099 9.10427 24.5076 9.3516C24.6053 9.59893 24.6354 9.86778 24.595 10.1306C24.0123 13.9201 22.944 20.8641 22.3769 24.5501C22.3377 24.8052 22.2333 25.0458 22.0739 25.2487C21.9144 25.4516 21.7053 25.61 21.4668 25.7085C21.2283 25.807 20.9684 25.8423 20.7122 25.8109C20.4561 25.7796 20.2123 25.6827 20.0046 25.5296C17.9985 24.0516 14.9908 21.8356 13.4637 20.7101C13.3459 20.6233 13.2485 20.5116 13.1786 20.383C13.1086 20.2544 13.0677 20.1121 13.0588 19.9659C13.0499 19.8198 13.0732 19.6735 13.127 19.5374C13.1808 19.4013 13.2639 19.2786 13.3703 19.1781C14.7696 17.8566 17.5565 15.2246 19.4739 13.4136C19.5191 13.3707 19.5466 13.3124 19.5511 13.2503C19.5555 13.1881 19.5366 13.1266 19.498 13.0776C19.4595 13.0287 19.404 12.9959 19.3425 12.9858C19.2811 12.9756 19.218 12.9887 19.1657 13.0226C16.7072 14.6261 12.9419 17.0816 11.0965 18.2851C10.7506 18.5107 10.3619 18.6624 9.95475 18.7308C9.54756 18.7992 9.13063 18.7828 8.73007 18.6826C7.71392 18.4286 6.24822 18.0621 4.94387 17.7361C4.73966 17.6851 4.55676 17.5709 4.42121 17.4099C4.28567 17.2488 4.20439 17.0491 4.18897 16.8392C4.17354 16.6293 4.22476 16.4199 4.33531 16.2407C4.44586 16.0616 4.61011 15.9219 4.80467 15.8416C9.34527 13.9661 18.2312 10.2961 22.54 8.51611Z" fill="white"/>
</g>
<defs>
<clipPath id="clip0_26_497">
<rect width="32" height="32" fill="white"/>
</clipPath>
</defs>
</svg>
