<svg width="145" height="778" viewBox="0 0 145 778" fill="none" xmlns="http://www.w3.org/2000/svg">
<path d="M144 235L144 235.5L144.5 235.5L144.5 235L144 235ZM144 0.999994L144.5 0.999994L144.5 0.499994L144 0.499994L144 0.999994ZM4.5 235L4.5 234.5L4 234.5L4 235L4.5 235ZM4.14645 304.854C4.34171 305.049 4.65829 305.049 4.85355 304.854L8.03553 301.672C8.2308 301.476 8.2308 301.16 8.03553 300.964C7.84027 300.769 7.52369 300.769 7.32843 300.964L4.5 303.793L1.67157 300.964C1.47631 300.769 1.15973 300.769 0.964466 300.964C0.769204 301.16 0.769204 301.476 0.964466 301.672L4.14645 304.854ZM88.5 235.5L144 235.5L144 234.5L88.5 234.5L88.5 235.5ZM144.5 235L144.5 0.999994L143.5 0.999994L143.5 235L144.5 235ZM144 0.499994L88 0.499996L88 1.5L144 1.49999L144 0.499994ZM88.5 234.5L4.5 234.5L4.5 235.5L88.5 235.5L88.5 234.5ZM4 235L4 304.5L5 304.5L5 235L4 235Z" fill="white" fill-opacity="0.64"/>
<path d="M3.64646 777.354C3.84172 777.549 4.1583 777.549 4.35356 777.354L7.53554 774.172C7.73081 773.976 7.73081 773.66 7.53554 773.464C7.34028 773.269 7.0237 773.269 6.82844 773.464L4.00001 776.293L1.17158 773.464C0.97632 773.269 0.659738 773.269 0.464475 773.464C0.269213 773.66 0.269213 773.976 0.464475 774.172L3.64646 777.354ZM3.5 560L3.50001 777L4.50001 777L4.5 560L3.5 560Z" fill="white"/>
</svg>
