<svg width="904" height="427" viewBox="0 0 904 427" fill="none" xmlns="http://www.w3.org/2000/svg">
    <path d="M449 425.875L448.25 425.875L448.25 426.625L449 426.625L449 425.875ZM897.5 425.875L897.5 426.625L898.25 426.625L898.25 425.875L897.5 425.875ZM898.03 369.246C897.737 368.953 897.263 368.953 896.97 369.246L892.197 374.019C891.904 374.311 891.904 374.786 892.197 375.079C892.49 375.372 892.964 375.372 893.257 375.079L897.5 370.837L901.743 375.079C902.036 375.372 902.51 375.372 902.803 375.079C903.096 374.786 903.096 374.311 902.803 374.019L898.03 369.246ZM448.25 370.277L448.25 425.875L449.75 425.875L449.75 370.277L448.25 370.277ZM449 426.625L897.5 426.625L897.5 425.125L449 425.125L449 426.625ZM898.25 425.875L898.25 369.776L896.75 369.776L896.75 425.875L898.25 425.875Z" fill="white" fill-opacity="0.64"/>
    <path d="M448.97 57.1282C449.263 57.4211 449.737 57.4211 450.03 57.1282L454.803 52.3552C455.096 52.0623 455.096 51.5875 454.803 51.2946C454.51 51.0017 454.036 51.0017 453.743 51.2946L449.5 55.5372L445.257 51.2946C444.964 51.0017 444.49 51.0017 444.197 51.2946C443.904 51.5875 443.904 52.0623 444.197 52.3552L448.97 57.1282ZM449.5 0.999989L450.25 0.999989L450.25 0.249989L449.5 0.249989L449.5 0.999989ZM1 0.999989L1 0.249989L0.25 0.249989L0.25 0.999989L1 0.999989ZM450.25 56.5979L450.25 0.999989L448.75 0.999989L448.75 56.5979L450.25 56.5979ZM449.5 0.249989L1 0.249989L1 1.74999L449.5 1.74999L449.5 0.249989ZM0.25 0.999989L0.25 57.0988L1.75 57.0988L1.75 0.999989L0.25 0.999989Z" fill="white" fill-opacity="0.64"/>
</svg>
